0
SECTION
2
HEADER
9
$INSUNITS
70
1
9
$ACADVER
1
AC1014
9
$HANDSEED
5
FFFF
0
ENDSEC
0
SECTION
2
TABLES
0
TABLE
2
VPORT
5
8
100
AcDbSymbolTable
0
ENDTAB
0
TABLE
2
LTYPE
5
5
100
AcDbSymbolTable
0
LTYPE
5
14
100
AcDbSymbolTableRecord
100
AcDbLinetypeTableRecord
2
BYBLOCK
70
0
0
LTYPE
5
15
100
AcDbSymbolTableRecord
100
AcDbLinetypeTableRecord
2
BYLAYER
70
0
0
ENDTAB
0
TABLE
2
LAYER
5
2
100
AcDbSymbolTable
70
2
0
LAYER
5
50
100
AcDbSymbolTableRecord
100
AcDbLayerTableRecord
2
0
70
0
6
CONTINUOUS
0
ENDTAB
0
TABLE
2
STYLE
5
3
100
AcDbSymbolTable
70
1
0
STYLE
5
11
100
AcDbSymbolTableRecord
100
AcDbTextStyleTableRecord
2
STANDARD
70
0
0
ENDTAB
0
TABLE
2
VIEW
5
6
100
AcDbSymbolTable
70
0
0
ENDTAB
0
TABLE
2
UCS
5
7
100
AcDbSymbolTable
70
0
0
ENDTAB
0
TABLE
2
APPID
5
9
100
AcDbSymbolTable
70
2
0
APPID
5
12
100
AcDbSymbolTableRecord
100
AcDbRegAppTableRecord
2
ACAD
70
0
0
ENDTAB
0
TABLE
2
DIMSTYLE
5
A
100
AcDbSymbolTable
70
1
0
ENDTAB
0
TABLE
2
BLOCK_RECORD
5
1
100
AcDbSymbolTable
70
1
0
BLOCK_RECORD
5
1F
100
AcDbSymbolTableRecord
100
AcDbBlockTableRecord
2
*MODEL_SPACE
0
BLOCK_RECORD
5
1B
100
AcDbSymbolTableRecord
100
AcDbBlockTableRecord
2
*PAPER_SPACE
0
ENDTAB
0
ENDSEC
0
SECTION
2
BLOCKS
0
BLOCK
5
20
100
AcDbEntity
100
AcDbBlockBegin
2
*MODEL_SPACE
0
ENDBLK
5
21
100
AcDbEntity
100
AcDbBlockEnd
0
BLOCK
5
1C
100
AcDbEntity
100
AcDbBlockBegin
2
*PAPER_SPACE
0
ENDBLK
5
1D
100
AcDbEntity
100
AcDbBlockEnd
0
ENDSEC
0
SECTION
2
ENTITIES
0
LWPOLYLINE
5
100
100
AcDbEntity
8
OUTER_PROFILES
100
AcDbPolyline
90
14
70
1
43
0.0
10
17.749925568450006
20
5.2999999999999998
10
6.123233995736766e-17
20
5.2999999999999963
42
0.41421356237309509
10
-0.99999999999999989
20
4.2999999999999972
10
-1
20
0.99999999999999978
42
0.41421356237309515
10
2.6225740739176914e-16
20
-5.2451481478353848e-16
10
17.749925568450006
20
0
10
17.749925568450006
20
0.75224999999999986
10
18.049925568450007
20
0.75224999999999986
10
18.049925568450007
20
1.8977499999999998
10
17.749925568450006
20
1.8977499999999998
10
17.749925568450006
20
3.4022499999999996
10
18.049925568450007
20
3.4022499999999996
10
18.049925568450007
20
4.5477499999999997
10
17.749925568450006
20
4.5477499999999997
0
CIRCLE
5
101
100
AcDbEntity
8
INTERIOR_PROFILES
100
AcDbCircle
10
-16.378925568449997
20
1.1000000000000001
30
0
40
0.063750000000000029
210
0
220
0
230
-1
0
CIRCLE
5
102
100
AcDbEntity
8
INTERIOR_PROFILES
100
AcDbCircle
10
-8.4479627842249929
20
4.1999999999999993
30
0
40
0.063750000000000029
210
0
220
0
230
-1
0
CIRCLE
5
103
100
AcDbEntity
8
INTERIOR_PROFILES
100
AcDbCircle
10
-0.49500000000001143
20
4.1999999999999993
30
0
40
0.063750000000000029
210
0
220
0
230
-1
0
CIRCLE
5
104
100
AcDbEntity
8
INTERIOR_PROFILES
100
AcDbCircle
10
-0.49500000000001143
20
1.725000000000001
30
0
40
0.063750000000000029
210
0
220
0
230
-1
0
CIRCLE
5
105
100
AcDbEntity
8
INTERIOR_PROFILES
100
AcDbCircle
10
-8.4479627842249929
20
1.725000000000001
30
0
40
0.063750000000000029
210
0
220
0
230
-1
0
CIRCLE
5
106
100
AcDbEntity
8
INTERIOR_PROFILES
100
AcDbCircle
10
-16.378925568449997
20
4.1999999999999993
30
0
40
0.063750000000000029
210
0
220
0
230
-1
0
CIRCLE
5
107
100
AcDbEntity
8
INTERIOR_PROFILES
100
AcDbCircle
10
-16.378925568449997
20
1.725000000000001
30
0
40
0.063750000000000029
210
0
220
0
230
-1
0
CIRCLE
5
108
100
AcDbEntity
8
INTERIOR_PROFILES
100
AcDbCircle
10
-8.4479627842249929
20
3.5749999999999993
30
0
40
0.063750000000000029
210
0
220
0
230
-1
0
CIRCLE
5
109
100
AcDbEntity
8
INTERIOR_PROFILES
100
AcDbCircle
10
-0.49500000000001143
20
3.5749999999999993
30
0
40
0.063750000000000029
210
0
220
0
230
-1
0
CIRCLE
5
110
100
AcDbEntity
8
INTERIOR_PROFILES
100
AcDbCircle
10
-0.49500000000001143
20
1.1000000000000001
30
0
40
0.063750000000000029
210
0
220
0
230
-1
0
CIRCLE
5
111
100
AcDbEntity
8
INTERIOR_PROFILES
100
AcDbCircle
10
-8.4479627842249929
20
1.1000000000000001
30
0
40
0.063750000000000029
210
0
220
0
230
-1
0
CIRCLE
5
112
100
AcDbEntity
8
INTERIOR_PROFILES
100
AcDbCircle
10
-16.378925568449997
20
3.5749999999999993
30
0
40
0.063750000000000029
210
0
220
0
230
-1
0
LINE
5
113
100
AcDbEntity
8
BEND
100
AcDbLine
10
2.0172406960562554
20
5.2999999999999972
30
-3.2736727049139015e-15
11
2.0172406960562554
21
0
31
3.2484181841915212e-16
0
LINE
5
114
100
AcDbEntity
8
BEND
100
AcDbLine
10
6.9257220881687509
20
2.0980592591341539e-15
30
1.7012898538237177e-14
11
6.9257220881687509
21
5.2999999999999998
31
1.7012898538237177e-14
0
LINE
5
115
100
AcDbEntity
8
BEND
100
AcDbLine
10
9.9592034802812464
20
5.2999999999999972
30
5.331526338412095e-14
11
9.9592034802812464
21
0
31
5.2727189384920205e-14
0
LINE
5
116
100
AcDbEntity
8
BEND
100
AcDbLine
10
14.867684872393742
20
2.0980592591341539e-15
30
4.8748327995613206e-14
11
14.867684872393742
21
5.2999999999999998
31
4.8748327995613206e-14
0
LINE
5
117
100
AcDbEntity
8
BEND_EXTENT
100
AcDbLine
10
1.8770000000000091
20
0
30
-5.9214396191065382e-16
11
1.8770000000000091
21
5.2999999999999972
31
-1.9908501346667563e-15
0
LINE
5
118
100
AcDbEntity
8
BEND_EXTENT
100
AcDbLine
10
2.1574813921125018
20
5.2999999999999998
30
-3.4057165541511524e-15
11
2.1574813921125018
21
0
31
-3.4057165541511524e-15
0
LINE
5
119
100
AcDbEntity
8
BEND_EXTENT
100
AcDbLine
10
6.7854813921125086
20
2.0980592591341539e-15
30
1.7657763024387546e-14
11
6.7854813921125086
21
5.2999999999999998
31
1.7657763024387546e-14
0
LINE
5
120
100
AcDbEntity
8
BEND_EXTENT
100
AcDbLine
10
7.0659627842249959
20
5.2999999999999998
30
1.7641602777659269e-14
11
7.0659627842249959
21
0
31
1.7641602777659269e-14
0
LINE
5
121
100
AcDbEntity
8
BEND_EXTENT
100
AcDbLine
10
9.8189627842250022
20
0
30
5.0481773662352228e-14
11
9.8189627842250022
21
5.2999999999999972
31
5.1181126748730278e-14
0
LINE
5
122
100
AcDbEntity
8
BEND_EXTENT
100
AcDbLine
10
10.09944417633749
20
5.2999999999999998
30
5.5361085020270302e-14
11
10.09944417633749
21
0
31
5.5361085020270302e-14
0
LINE
5
123
100
AcDbEntity
8
BEND_EXTENT
100
AcDbLine
10
14.727444176337496
20
2.0980592591341539e-15
30
4.9149794230065007e-14
11
14.727444176337496
21
5.2999999999999998
31
4.9149794230065007e-14
0
LINE
5
124
100
AcDbEntity
8
BEND_EXTENT
100
AcDbLine
10
15.007925568449989
20
5.2999999999999998
30
4.8434280896958668e-14
11
15.007925568449989
21
0
31
4.8434280896958668e-14
0
ENDSEC
0
SECTION
2
OBJECTS
0
DICTIONARY
5
C
100
AcDbDictionary
3
ACAD_GROUP
350
D
3
ACAD_MLINESTYLE
350
17
0
DICTIONARY
5
D
100
AcDbDictionary
0
DICTIONARY
5
1A
330
C
100
AcDbDictionary
0
DICTIONARY
5
17
100
AcDbDictionary
0
ENDSEC
0
EOF
