0
SECTION
2
HEADER
9
$INSUNITS
70
1
9
$ACADVER
1
AC1014
9
$HANDSEED
5
FFFF
0
ENDSEC
0
SECTION
2
TABLES
0
TABLE
2
VPORT
5
8
100
AcDbSymbolTable
0
ENDTAB
0
TABLE
2
LTYPE
5
5
100
AcDbSymbolTable
0
LTYPE
5
14
100
AcDbSymbolTableRecord
100
AcDbLinetypeTableRecord
2
BYBLOCK
70
0
0
LTYPE
5
15
100
AcDbSymbolTableRecord
100
AcDbLinetypeTableRecord
2
BYLAYER
70
0
0
ENDTAB
0
TABLE
2
LAYER
5
2
100
AcDbSymbolTable
70
2
0
LAYER
5
50
100
AcDbSymbolTableRecord
100
AcDbLayerTableRecord
2
0
70
0
6
CONTINUOUS
0
ENDTAB
0
TABLE
2
STYLE
5
3
100
AcDbSymbolTable
70
1
0
STYLE
5
11
100
AcDbSymbolTableRecord
100
AcDbTextStyleTableRecord
2
STANDARD
70
0
0
ENDTAB
0
TABLE
2
VIEW
5
6
100
AcDbSymbolTable
70
0
0
ENDTAB
0
TABLE
2
UCS
5
7
100
AcDbSymbolTable
70
0
0
ENDTAB
0
TABLE
2
APPID
5
9
100
AcDbSymbolTable
70
2
0
APPID
5
12
100
AcDbSymbolTableRecord
100
AcDbRegAppTableRecord
2
ACAD
70
0
0
ENDTAB
0
TABLE
2
DIMSTYLE
5
A
100
AcDbSymbolTable
70
1
0
ENDTAB
0
TABLE
2
BLOCK_RECORD
5
1
100
AcDbSymbolTable
70
1
0
BLOCK_RECORD
5
1F
100
AcDbSymbolTableRecord
100
AcDbBlockTableRecord
2
*MODEL_SPACE
0
BLOCK_RECORD
5
1B
100
AcDbSymbolTableRecord
100
AcDbBlockTableRecord
2
*PAPER_SPACE
0
ENDTAB
0
ENDSEC
0
SECTION
2
BLOCKS
0
BLOCK
5
20
100
AcDbEntity
100
AcDbBlockBegin
2
*MODEL_SPACE
0
ENDBLK
5
21
100
AcDbEntity
100
AcDbBlockEnd
0
BLOCK
5
1C
100
AcDbEntity
100
AcDbBlockBegin
2
*PAPER_SPACE
0
ENDBLK
5
1D
100
AcDbEntity
100
AcDbBlockEnd
0
ENDSEC
0
SECTION
2
ENTITIES
0
LWPOLYLINE
5
100
100
AcDbEntity
8
OUTER_PROFILES
100
AcDbPolyline
90
44
70
1
43
0.0
10
-1.0249999999999959
20
5.5500000000000025
10
-1.274999999999995
20
5.3000000000000007
10
-2.1512499999999988
20
5.3000000000000007
10
-2.1512499999999988
20
4.5500000000000007
10
-2.0249999999999981
20
4.5500000000000007
10
-2.0249999999999981
20
3.4000000000000008
10
-2.1512499999999988
20
3.4000000000000008
10
-2.1512499999999988
20
1.9000000000000001
10
-2.0249999999999981
20
1.9000000000000001
10
-2.0249999999999981
20
0.75000000000000033
10
-2.1512499999999988
20
0.75000000000000033
10
-2.1512499999999988
20
0
10
-1.2749999999999895
20
0
10
-1.0249999999999986
20
-0.2499999999999992
10
-1.0250000000000015
20
-0.38750000000000667
42
0.99999999999999989
10
-0.2499999999999992
20
-0.38750000000000684
10
-0.2499999999999992
20
-0.250000000000002
10
0
20
0
10
27.697500000000002
20
0
10
27.947499999999998
20
-0.24999999999999639
10
27.947499999999998
20
-0.38750000000000673
42
0.99999999999999989
10
28.7225
20
-0.38750000000000684
10
28.7225
20
-0.250000000000002
10
28.972499999999997
20
0
10
29.848750000000006
20
0
10
29.848750000000006
20
0.75000000000000033
10
29.722499999999997
20
0.75000000000000033
10
29.722499999999997
20
1.9000000000000001
10
29.848750000000006
20
1.9000000000000001
10
29.848750000000006
20
3.4000000000000008
10
29.722499999999997
20
3.4000000000000008
10
29.722499999999997
20
4.5500000000000007
10
29.848750000000006
20
4.5500000000000007
10
29.848750000000006
20
5.3000000000000007
10
28.972500000000007
20
5.3000000000000007
10
28.7225
20
5.5500000000000025
10
28.7225
20
5.6875000000000018
42
0.99999999999999989
10
27.947499999999998
20
5.6875000000000018
10
27.947499999999998
20
5.5500000000000016
10
27.697500000000012
20
5.3000000000000007
10
0
20
5.3000000000000007
10
-0.2499999999999992
20
5.5500000000000025
10
-0.2499999999999992
20
5.6875000000000018
42
0.99999999999999989
10
-1.0249999999999959
20
5.6875000000000018
0
CIRCLE
5
101
100
AcDbEntity
8
INTERIOR_PROFILES
100
AcDbCircle
10
0.63750000000000029
20
5.6875000000000018
30
0
40
0.13750000000000054
210
0
220
0
230
-1
0
CIRCLE
5
102
100
AcDbEntity
8
INTERIOR_PROFILES
100
AcDbCircle
10
-28.334999999999997
20
-0.38750000000000673
30
0
40
0.13749999999999915
210
0
220
0
230
-1
0
CIRCLE
5
103
100
AcDbEntity
8
INTERIOR_PROFILES
100
AcDbCircle
10
0.63750000000000029
20
-0.38750000000000673
30
0
40
0.13749999999999915
210
0
220
0
230
-1
0
CIRCLE
5
104
100
AcDbEntity
8
INTERIOR_PROFILES
100
AcDbCircle
10
-28.334999999999997
20
5.6875000000000018
30
0
40
0.13750000000000054
210
0
220
0
230
-1
0
ENDSEC
0
SECTION
2
OBJECTS
0
DICTIONARY
5
C
100
AcDbDictionary
3
ACAD_GROUP
350
D
3
ACAD_MLINESTYLE
350
17
0
DICTIONARY
5
D
100
AcDbDictionary
0
DICTIONARY
5
1A
330
C
100
AcDbDictionary
0
DICTIONARY
5
17
100
AcDbDictionary
0
ENDSEC
0
EOF
